<?xml version="1.0" encoding="UTF-8" standalone="no"?>
<!-- Created with Inkscape (http://www.inkscape.org/) -->

<svg
   xmlns:svg="http://www.w3.org/2000/svg"
   xmlns="http://www.w3.org/2000/svg"
   version="1.1"
   width="297mm"
   height="210mm"
   id="svg2855">
  <defs
     id="defs2857">
    <marker
       refX="0"
       refY="0"
       orient="auto"
       id="Arrow2Lend"
       style="overflow:visible">
      <path
         d="M 8.7185878,4.0337352 -2.2072895,0.01601326 8.7185884,-4.0017078 c -1.7454984,2.3720609 -1.7354408,5.6174519 -6e-7,8.035443 z"
         transform="matrix(-1.1,0,0,-1.1,-1.1,0)"
         id="path3771"
         style="font-size:12px;fill-rule:evenodd;stroke-width:0.625;stroke-linejoin:round" />
    </marker>
    <marker
       refX="0"
       refY="0"
       orient="auto"
       id="Arrow2Lstart"
       style="overflow:visible">
      <path
         d="M 8.7185878,4.0337352 -2.2072895,0.01601326 8.7185884,-4.0017078 c -1.7454984,2.3720609 -1.7354408,5.6174519 -6e-7,8.035443 z"
         transform="matrix(1.1,0,0,1.1,1.1,0)"
         id="path3768"
         style="font-size:12px;fill-rule:evenodd;stroke-width:0.625;stroke-linejoin:round" />
    </marker>
  </defs>
  <g
     id="layer1">
    <g
       id="g4383">
      <path
         d="m 51.476093,48.521521 c -0.881512,0.767232 -2.08702,1.331217 -2.644538,2.301697 -0.290315,0.505357 -0.0654,13.639426 0,13.810182 0.394225,1.029351 2.087021,1.331217 2.644538,2.301697 0.341873,0.595106 0,12.178735 0,13.810183 0,1.631447 0.341873,13.215076 0,13.810182 -0.557517,0.97048 -2.08702,1.331216 -2.644538,2.301697 -0.394223,0.686233 0,1.534465 0,2.301697 0,3.836164 0,7.672324 0,11.508484 0,0.76723 0,1.53447 0,2.3017 0,0.76723 0.394225,1.61546 0,2.30169 -0.557516,0.97048 -2.087019,1.33122 -2.644537,2.3017 -0.347678,0.60522 0,8.00318 0,9.20679 0,0.76723 0.881513,2.3017 0,2.3017 -0.881512,0 -0.881512,-2.3017 0,-2.3017 1.246648,0 1.529503,1.81646 2.644537,2.3017 0.78845,0.34311 1.763026,0 2.644538,0 0.881513,0 1.763025,0 2.644537,0 8.512636,0 -4.514507,-0.54252 5.289074,2.30169 2.508827,0.72786 5.289074,0 7.933611,0 5.289073,0 10.578147,0 15.867221,0 6.170586,0 12.341172,0 18.511754,0 2.64454,0 5.42479,-0.72786 7.93362,0 1.18267,0.34312 1.46186,1.95858 2.64454,2.3017 2.4442,0.70911 10.75587,-0.71567 13.22267,0 1.86998,0.54252 3.41911,1.75918 5.28909,2.3017 1.67254,0.48524 3.52604,0 5.28906,0 5.28907,0 10.57815,0 15.86722,0 2.3837,0 11.55822,0.48289 13.22269,0 1.86997,-0.54252 3.41911,-1.75918 5.28907,-2.3017 0.83628,-0.24262 1.76303,0 2.64454,0 2.3837,0 11.55821,0.48289 13.22268,0 1.86998,-0.54251 3.41911,-1.75918 5.28908,-2.3017 2.49146,-0.72281 14.15265,0.74615 15.86722,0 1.11504,-0.48524 1.46187,-1.95858 2.64454,-2.30169 1.67255,-0.48524 3.52604,0 5.28907,0 6.17058,0 12.34118,0 18.51176,0 1.76303,0 3.57869,0.37216 5.28907,0 1.91227,-0.41609 3.4191,-1.75919 5.28908,-2.3017 2.31146,-0.6706 14.27437,0.69318 15.86722,0 1.11503,-0.48524 1.5295,-1.81646 2.64454,-2.3017 0.80482,-0.35024 6.74262,0 7.93361,0 4.40755,0 8.81512,0 13.22268,0 1.76302,0 3.61653,-0.48524 5.28908,0 1.86996,0.54252 3.3768,1.88561 5.28907,2.3017 2.59455,0.56454 14.33986,-0.66468 15.86722,0 1.11503,0.48524 1.46186,1.95858 2.64454,2.3017 1.67255,0.48524 3.52605,0 5.28907,0 3.07208,0 10.82528,-0.52166 13.22269,0 1.91226,0.41609 3.4191,1.75918 5.28907,2.30169 0.83627,0.24262 1.76302,0 2.64454,0 1.76302,0 3.52605,0 5.28906,0 1.43824,0 10.81607,0 5.28909,0 -1.76303,0 -7.0521,0 -5.28909,0 3.52606,0 7.12058,-0.60186 10.57815,0 1.22245,0.21279 1.46187,1.95858 2.64454,2.3017 3.34511,0.97048 7.15739,-0.74432 10.57815,0 1.91227,0.41609 3.41911,1.75918 5.28907,2.3017 0.83628,0.24262 1.76303,0 2.64454,0 1.76303,0 3.52605,0 5.28907,0 1.76303,0 3.52606,0 5.28908,0 1.76302,0 3.61652,0.48524 5.28907,0 1.18268,-0.34312 1.48706,-1.89873 2.64454,-2.3017 3.37462,-1.17485 7.13009,-1.30135 10.57815,-2.3017 1.86997,-0.54251 3.45894,-1.66455 5.28907,-2.30169 8.00514,-2.78694 6.15861,-2.3017 13.22268,-2.3017 4.18965,0 7.14517,0.68623 10.57815,-2.3017 0.62333,-0.54251 0,-1.53446 0,-2.30169 0,-5.37063 0,-10.74126 0,-16.11188 0,-1.60093 -0.47817,-10.676117 0,-11.508488 0.55752,-0.970481 2.08702,-1.331217 2.64454,-2.301697 0.14758,-0.256905 0.14758,-11.25158 0,-11.508485 -0.55752,-0.970481 -2.08702,-1.331217 -2.64454,-2.301697 -0.34767,-0.605212 0,-8.003184 0,-9.206789 0,-7.672323 0,-15.344647 0,-23.01697 0,-0.767232 0,-1.534465 0,-2.301697 0,-0.767232 -0.39422,-1.615463 0,-2.301697 0.55752,-0.97048 2.64454,-1.216666 2.64454,-2.301697 0,-1.08503 -2.08702,-1.331216 -2.64454,-2.301697 -0.39422,-0.686233 0.78846,-1.95858 0,-2.301697 -0.76284,-0.331975 -14.17704,0 -15.86722,0 -4.40755,0 -8.81512,0 -13.22268,0 -1.76302,0 -3.61652,-0.48524 -5.28908,0 -1.18267,0.343117 -1.46187,1.95858 -2.64454,2.301697 -3.61083,1.047574 -12.25638,-1.047574 -15.86722,0 -1.18267,0.343117 -1.5295,1.816457 -2.64453,2.301697 -1.51836,0.660762 -13.73793,-0.617749 -15.86723,0 -1.18267,0.343117 -1.42209,2.088905 -2.64452,2.301697 -3.45758,0.601867 -7.05211,0 -10.57815,0 -7.93361,0 -15.86722,0 -23.80084,0 -17.63025,0 -35.2605,0 -52.89074,0 -15.86722,0 -31.73444,0 -47.60166,0 -2.72443,0 -17.73121,-0.339679 -18.51176,0 -1.11503,0.485241 -1.5295,1.816457 -2.64454,2.301697 -0.78844,0.343117 -1.76303,0 -2.64454,0 -0.8815,0 -1.76301,0 -2.64453,0 -6.17059,0 -12.34117,0 -18.51176,0 -11.45966,0 -22.91932,0 -34.37898,0 -1.83937,0 -12.26632,-0.416185 -13.22269,0 -1.11503,0.485241 -1.46185,1.95858 -2.64452,2.301697 -1.67256,0.485241 -3.52606,0 -5.28909,0 -1.76302,0 -3.61651,0.485241 -5.28906,0 -1.86998,-0.542514 -3.41911,-1.759181 -5.28908,-2.301697 -0.83628,-0.24262 -1.76302,0 -2.64453,0 -2.24429,0 -14.409353,0.422959 -15.86723,0 -1.182672,-0.343117 -1.461864,-1.95858 -2.644537,-2.301697 -3.610834,-1.047574 -12.256388,1.047574 -15.867221,0 -1.182672,-0.343117 -1.529503,-1.816456 -2.644537,-2.301697 -0.788449,-0.343117 -1.763024,0 -2.644537,0 -0.881512,0 -1.763024,0 -2.644536,0 -5.289074,0 -10.578148,0 -18.511759,9.206788 z"
         id="path2868"
         style="fill:none;stroke:#000000;stroke-width:1.07114208px;stroke-linecap:butt;stroke-linejoin:miter;stroke-opacity:1" />
      <path
         d="m 50.672755,163.66111 c 0,4.60662 0,9.21323 0,13.81984 0,1.53554 -0.48558,3.14988 0,4.60662 0.343356,1.03007 1.95995,1.27324 2.303307,2.30331 0.485579,1.45673 0,3.07107 0,4.60661 0,1.53554 0,3.07108 0,4.60661 0,1.92877 0.437896,9.76495 0,11.51654 -0.416382,1.66552 -1.886926,2.94109 -2.303307,4.60661 -0.438788,1.75515 0,13.74006 0,16.12315 0,1.53554 0,3.07108 0,4.60662 0,0.76777 0.343356,1.61659 0,2.3033 -0.48558,0.97116 -1.817728,1.33215 -2.303308,2.30331 -0.699309,1.39862 0.69931,12.42122 0,13.81984 -0.485579,0.97116 -1.817727,1.33215 -2.303307,2.30331 -0.723839,1.44768 0.72384,7.76555 0,9.21323 -0.485579,0.97116 -1.817727,1.33214 -2.303307,2.3033 -0.350144,0.70029 0,7.62275 0,9.21323 0,4.60662 0,9.21323 0,13.81984 0,1.03732 0.350488,6.20895 0,6.90993 -0.485579,0.97116 -1.817727,1.33214 -2.303307,2.3033 -0.343356,0.68672 0,1.53554 0,2.30331 0,3.55746 0.542664,8.26055 0,11.51653 -0.399144,2.39487 -1.714455,4.55452 -2.303307,6.90993 -0.186211,0.74484 0,1.53553 0,2.3033 0,1.53554 0,3.07108 0,4.60662 0,3.83884 0,7.67769 0,11.51653 0,0.76777 0,1.53554 0,2.30331 0,0.76777 0.343357,1.61659 0,2.30331 -0.485579,0.97116 -1.817727,1.33214 -2.303307,2.3033 -0.306914,0.61383 0,12.77785 0,13.81985 0,4.60661 0,9.21322 0,13.81984 0,1.53554 -0.372422,3.11692 0,4.60661 0.416382,1.66553 1.760413,2.97793 2.303307,4.60662 0.528097,1.58428 -0.679498,5.55092 0,6.90992 0.48558,0.97116 1.817728,1.33214 2.303307,2.3033 0.686714,1.37343 -0.686713,3.23319 0,4.60662 0.48558,0.97116 1.817728,1.33215 2.303307,2.3033 0.921323,1.84265 -0.921322,5.06728 0,6.90993 0.48558,0.97116 1.817728,1.33214 2.303307,2.3033 0.343357,0.68672 -0.343356,1.6166 0,2.30331 0.48558,0.97116 1.817728,1.33215 2.303307,2.30331 0.491853,0.9837 0,10.60601 0,11.51653 0,3.83885 0,7.67769 0,11.51654 0,0.76777 0,1.53554 0,2.3033 0,0.76777 0.343357,1.6166 0,2.30331 -0.485579,0.97116 -1.817727,1.33215 -2.303307,2.30331 -0.921322,1.84264 0.921323,5.06727 0,6.90992 -0.485579,0.97116 -1.817727,1.33215 -2.303307,2.30331 -0.343356,0.68671 -0.542894,2.8462 0,2.3033 1.21395,-1.21395 2.303307,-6.32339 2.303307,-4.60661 0,2.4279 -2.303307,4.48202 -2.303307,6.90992 0,0.76777 1.535538,0 2.303307,0 3.071077,0 6.142153,0 9.213229,0 12.284304,0 24.568608,0 36.852912,0 3.838845,0 7.67769,0 11.516539,0 1.53553,0 3.11692,-0.37242 4.60661,0 1.66552,0.41638 2.94109,1.88693 4.60661,2.30331 3.61303,0.90326 7.90351,-0.90326 11.51654,0 1.66552,0.41638 2.94109,1.88692 4.60661,2.3033 1.48969,0.37243 3.07108,0 4.60662,0 4.60661,0 9.21323,0 13.81984,0 2.30331,0 4.60661,0 6.90992,0 0.76777,0 1.53554,0 2.30331,0 0.76777,0 1.61659,0.34336 2.3033,0 1.94232,-0.97116 2.6643,-3.63545 4.60662,-4.60661 1.84264,-0.92132 5.06727,0.92132 6.90992,0 0.97116,-0.48558 1.33215,-1.81773 2.30331,-2.30331 0.68671,-0.34335 1.53553,0 2.3033,0 3.83885,0 7.67769,0 11.51654,0 0.76777,0 1.53554,0 2.30331,0 0.76776,0 1.61659,0.34336 2.3033,0 0.97116,-0.48558 1.33215,-1.81772 2.30331,-2.3033 0.68671,-0.34336 1.53554,0 2.30331,0 1.53554,0 3.07107,0 4.60661,0 3.07031,0 6.14292,0 9.21323,0 0.76777,0 1.53554,0 2.30331,0 0.76777,0 1.61659,0.34335 2.3033,0 0.97116,-0.48558 1.27324,-1.95995 2.30331,-2.30331 1.0535,-0.35117 8.18831,0.51246 9.21323,0 0.97116,-0.48558 1.33215,-1.81773 2.30331,-2.30331 1.35899,-0.6795 5.32563,0.5281 6.90992,0 1.62868,-0.54289 2.97793,-1.76041 4.60661,-2.3033 0.72837,-0.24279 1.57494,0.24279 2.30331,0 1.62868,-0.5429 2.94109,-1.88693 4.60661,-2.30331 2.23454,-0.55864 4.72481,0.72837 6.90992,0 1.62869,-0.5429 2.97793,-1.76041 4.60662,-2.30331 1.24656,-0.41552 8.42855,0 9.21322,0 2.30331,0 4.72482,-0.72837 6.90993,0 1.03007,0.34336 1.33214,1.81773 2.3033,2.30331 1.22131,0.61065 9.9496,-0.52232 11.51654,0 1.03007,0.34336 1.53554,1.53554 2.3033,2.30331 1.53554,0.76776 2.94109,1.88692 4.60662,2.3033 1.48969,0.37242 3.23319,-0.68671 4.60661,0 0.68672,0.34336 -0.54289,1.76041 0,2.30331 0.5429,0.54289 1.53554,0 2.30331,0 0.76777,0 1.53554,0 2.30331,0 2.67568,0 9.42848,0.52201 11.51653,0 11.12254,-2.78064 -0.11415,-1.09458 6.90992,-4.60661 0.68672,-0.34336 1.6166,0.34335 2.30331,0 1.94232,-0.97116 2.6643,-3.63546 4.60661,-4.60662 0.68672,-0.34336 1.95995,0.68671 2.30331,0 0.68671,-1.37343 -0.37242,-3.11692 0,-4.60661 0.41638,-1.66553 1.76041,-2.97793 2.30331,-4.60662 0.24279,-0.72837 0,-1.53553 0,-2.3033 0,-1.53554 0,-3.07108 0,-4.60662 0,-3.11905 0,-6.09418 0,-9.21323 0,-0.76777 -0.24279,-1.57493 0,-2.3033 0.54289,-1.62869 1.88692,-2.94109 2.30331,-4.60662 0.52201,-2.08805 0,-8.84085 0,-11.51653 0,-8.44546 0,-16.89092 0,-25.33638 0,-3.83884 0,-7.67769 0,-11.51653 0,-1.53554 -0.37243,-3.11693 0,-4.60662 0.41638,-1.66552 1.76041,-2.97793 2.3033,-4.60661 0.24279,-0.72837 0,-1.53554 0,-2.30331 0,-1.53554 0,-3.07108 0,-4.60661 0,-4.60662 0,-9.21323 0,-13.81985 0,-16.12315 0,-32.24629 0,-48.36944 0,-7.67769 0,-15.35538 0,-23.03307 0,-1.20445 0.30282,-8.6076 0,-9.21323 -0.48558,-0.97116 -1.81772,-1.33215 -2.3033,-2.30331 -0.72655,-1.45308 0.72654,-10.06345 0,-11.51653 -0.48558,-0.97116 -1.81773,-1.33215 -2.30331,-2.30331 -0.74814,-1.49628 0.73051,-10.05551 0,-11.51654 -0.48558,-0.97116 -1.81773,-1.33214 -2.30331,-2.3033 -0.34336,-0.68672 0,-1.53554 0,-2.30331 0,-0.76777 0,-1.53554 0,-2.30331 0,-1.20444 0.30282,-8.60759 0,-9.21323 -0.48558,-0.97115 -1.81773,-1.33214 -2.30331,-2.3033 -0.12854,-0.25709 -0.12854,-11.25945 0,-11.51654 0.48558,-0.97116 1.81773,-1.33214 2.30331,-2.3033 0.35049,-0.70098 0,-5.87261 0,-6.90993 0,-0.76776 0,-1.53553 0,-2.3033 0,-0.76777 -0.34336,-1.6166 0,-2.30331 2.8462,-5.6924 2.30331,0.79505 2.30331,-4.60661 0,-0.76777 0.76777,-2.30331 0,-2.30331 -1.19252,0 -11.7228,6.21091 -13.81984,6.90992 -1.49235,0.49745 -9.63082,0 -11.51654,0 -8.44546,0 -16.89092,0 -25.33638,0 -7.67769,0 -15.35538,0 -23.03307,0 -1.53553,0 -3.07107,0 -4.60661,0 -0.76777,0 -1.61659,0.34336 -2.30331,0 -0.97116,-0.48558 -1.33214,-1.81773 -2.3033,-2.30331 -1.43043,-0.71521 -12.34394,0.73796 -13.81985,0 -0.97116,-0.48558 -1.24993,-2.03996 -2.3033,-2.3033 -2.23454,-0.55864 -4.60662,0 -6.90992,0 -2.30331,0 -4.60662,0 -6.90993,0 -1.53553,0 -3.11692,0.37242 -4.60661,0 -1.66552,-0.41638 -2.94109,-1.88693 -4.60661,-2.30331 -3.13742,-0.78436 -11.03333,0.92884 -13.81985,0 -1.03007,-0.34336 -1.27323,-1.95995 -2.3033,-2.30331 -3.14492,-1.0483 -10.67492,1.04831 -13.81985,0 -1.03007,-0.34335 -1.27323,-1.95995 -2.3033,-2.3033 -1.85455,-0.61819 -12.4974,0.66122 -13.81984,0 -0.97116,-0.48558 -1.27324,-1.95995 -2.30331,-2.30331 -1.23827,-0.41276 -7.26313,0 -9.21323,0 -6.90992,0 -13.81984,0 -20.72976,0 -6.90992,0 -13.81984,0 -20.72977,0 -1.2856,0 -10.46216,0.35146 -11.51653,0 -1.03007,-0.34336 -1.33215,-1.81773 -2.303308,-2.30331 -0.686713,-0.34336 -1.535538,0 -2.303307,0 -0.767769,0 -1.535538,0 -2.303307,0 -4.606614,0 -9.213228,0 -13.819842,0 -0.767769,0 -1.535538,0 -2.303307,0 -0.767769,0 -1.616594,0.34336 -2.303307,0 -0.97116,-0.48558 -1.332148,-1.81773 -2.303307,-2.30331 -0.605635,-0.30281 -8.008782,0 -9.213228,0 -5.374383,0 -10.748766,0 -13.819842,9.21323 z"
         id="path2870"
         style="fill:none;stroke:#000000;stroke-width:1px;stroke-linecap:butt;stroke-linejoin:miter;stroke-opacity:1" />
      <path
         d="m 357.01259,182.08757 c -0.68671,1.37343 0.68671,3.23319 0,4.60661 -0.48558,0.97116 -2.03997,1.24994 -2.30331,2.30331 -0.55863,2.23454 0.55864,4.67538 0,6.90992 -0.26334,1.05337 -1.95995,1.27324 -2.30331,2.30331 -0.72837,2.18511 0,4.60661 0,6.90992 0,4.60661 0,9.21323 0,13.81984 0,6.90992 0,13.81984 0,20.72976 0,2.30331 -0.72837,4.72482 0,6.90993 0.34336,1.03007 1.81773,1.33214 2.30331,2.3033 0.34336,0.68672 0,1.53554 0,2.30331 0,1.53554 -0.48558,3.14987 0,4.60661 0.34336,1.03007 1.81773,1.33215 2.30331,2.30331 0.51246,1.02492 -0.35117,8.15973 0,9.21323 0.34336,1.03007 1.81773,1.33215 2.30331,2.30331 1.18362,2.36724 -2.30331,5.31246 -2.30331,6.90992 0,1.08579 1.95995,1.27323 2.30331,2.3033 0.48558,1.45674 -0.37243,3.11693 0,4.60662 1.24854,4.99417 5.66137,6.52236 6.90992,11.51653 0.37242,1.48969 0,3.07108 0,4.60662 0,3.83884 0,7.67769 0,11.51653 0,5.37439 0,10.74877 0,16.12315 0,1.53554 0,3.07108 0,4.60662 0,1.53553 0.37242,3.11692 0,4.60661 -0.41638,1.66552 -1.76042,2.97793 -2.30331,4.60661 -0.24279,0.72837 0,1.53554 0,2.30331 0,1.53554 0,3.07108 0,4.60661 0,1.53554 0,3.07108 0,4.60662 0,1.53554 -0.48558,3.14987 0,4.60661 0.34336,1.03007 1.95995,1.27324 2.30331,2.30331 0.30577,0.91733 0.30577,12.90251 0,13.81984 -0.34336,1.03007 -1.95995,1.27324 -2.30331,2.30331 -0.42325,1.26976 0,11.86515 0,13.81984 0,7.67769 0,15.35538 0,23.03307 0,3.83885 0,7.67769 0,11.51654 0,0.76777 0,1.53553 0,2.3033 0,0.76777 0.34336,1.6166 0,2.30331 -0.48558,0.97116 -1.81773,1.33215 -2.30331,2.30331 -0.21131,0.42262 0.16905,6.90992 0,6.90992 -0.76777,0 0,-3.07108 0,-2.30331 0,1.53554 0,3.07108 0,4.60662 0,0.76776 0,1.53553 0,2.3033 0,0.76777 0.34336,1.6166 0,2.30331 -0.48558,0.97116 -2.3033,1.21752 -2.3033,2.30331 0,0.76777 1.53553,0 2.3033,0 1.9547,0 12.55008,0.42325 13.81984,0 10.16729,-3.3891 -8.36829,-2.30331 6.90993,-2.30331 5.37438,0 10.74876,0 16.12315,0 1.53553,0 3.07107,0 4.60661,0 1.53554,0 3.14987,-0.48558 4.60661,0 1.03007,0.34336 1.27324,1.95995 2.30331,2.30331 0.91733,0.30577 12.90251,0.30577 13.81984,0 4.58347,-1.52783 1.07488,-2.14976 2.30331,-4.60662 0.97116,-1.94232 3.9199,-2.54647 4.60661,-4.60661 0.48558,-1.45674 -0.48558,-3.14988 0,-4.60662 0.34336,-1.03007 1.95995,-1.27323 2.30331,-2.3033 0.48558,-1.45674 0,-3.07108 0,-4.60662 0,-5.37438 0,-10.74876 0,-16.12315 0,-1.88571 -0.49745,-10.02418 0,-11.51653 0.5429,-1.62869 1.88693,-2.94109 2.30331,-4.60662 0.37242,-1.48969 0,-3.07107 0,-4.60661 0,-1.53554 0,-3.07108 0,-4.60661 0,-0.76777 -0.24279,-1.57494 0,-2.30331 0.54289,-1.62868 1.88692,-2.94109 2.3033,-4.60661 0.74485,-2.97939 -0.97116,-6.29975 0,-9.21323 0.34336,-1.03007 1.95995,-1.27324 2.30331,-2.30331 1.04831,-3.14492 -1.04831,-10.67492 0,-13.81984 0.34336,-1.03007 1.95995,-1.27324 2.30331,-2.30331 0.43992,-1.31978 0,-9.35415 0,-11.51653 0,-4.60662 0,-9.21323 0,-13.81985 0,-1.53553 0,-3.07107 0,-4.60661 0,-0.76777 0.24279,-1.57494 0,-2.30331 -0.5429,-1.62868 -1.88693,-2.94109 -2.30331,-4.60661 -0.74484,-2.97938 0.97116,-6.29975 0,-9.21323 -0.34336,-1.03007 -1.81773,-1.33215 -2.30331,-2.30331 -0.92132,-1.84264 0.92133,-5.06727 0,-6.90992 -0.48558,-0.97116 -1.81772,-1.33214 -2.3033,-2.3033 -0.67473,-1.34945 0.42432,-9.81924 0,-11.51654 -0.41638,-1.66552 -1.88693,-2.94109 -2.30331,-4.60661 -0.51409,-2.05636 0,-8.8504 0,-11.51654 0,-1.95009 -0.41276,-7.97495 0,-9.21323 0.34336,-1.03007 1.81773,-1.33214 2.30331,-2.3033 0.15728,-0.31457 0.15728,-13.50528 0,-13.81985 -0.48558,-0.97116 -1.81773,-1.33214 -2.30331,-2.3033 -0.29776,-0.59552 0,-12.18726 0,-13.81984 0,-0.76777 0,-1.53554 0,-2.30331 0,-0.76777 0.34336,-1.6166 0,-2.30331 -0.48558,-0.97116 -1.81773,-1.33215 -2.30331,-2.30331 -0.69931,-1.39862 0.69931,-12.42122 0,-13.81984 -0.48558,-0.97116 -1.81772,-1.33215 -2.3033,-2.30331 -0.34336,-0.68671 0,-1.53553 0,-2.3033 0,-0.76777 0,-1.53554 0,-2.30331 0,-3.83884 0,-7.67769 0,-11.51653 0,-0.76777 0.34335,-1.6166 0,-2.30331 -0.48558,-0.97116 -1.81773,-1.33215 -2.30331,-2.30331 -0.34336,-0.68671 0.34336,-1.61659 0,-2.30331 -0.48558,-0.97115 -1.81773,-1.33214 -2.30331,-2.3033 -0.68671,-1.37343 1.08579,-3.52083 0,-4.60662 -3.57805,-3.57805 -9.38601,-2.3033 -13.81984,-2.3033 -0.76777,0 -1.57494,0.24279 -2.30331,0 -1.62868,-0.5429 -2.94109,-1.88693 -4.60661,-2.30331 -2.08806,-0.52201 -8.84085,0 -11.51654,0 -1.53553,0 -3.14987,0.48558 -4.60661,0 -1.03007,-0.34336 -1.33215,-1.81773 -2.30331,-2.30331 -0.68671,-0.34335 -1.53554,0 -2.3033,0 -0.91053,0 -10.53283,-0.49185 -11.51654,0 -0.97116,0.48558 -1.39987,1.70102 -2.30331,2.30331 -3.72494,2.48329 -7.67769,4.60661 -11.51653,16.12315 z"
         id="path2872"
         style="fill:none;stroke:#000000;stroke-width:1px;stroke-linecap:butt;stroke-linejoin:miter;stroke-opacity:1" />
      <path
         d="m 73.705825,89.955288 c -2.303307,3.071076 -10.343489,7.496444 -6.909921,9.213228 4.004193,2.002094 7.359908,-5.247271 11.516535,-6.909921 0.712855,-0.285143 0,1.535538 0,2.303307 0,0.767769 0,1.535538 0,2.303307 0,0.767769 -0.686714,1.95995 0,2.303307 1.373427,0.686713 3.071076,0 4.606614,0 4.606614,0 9.213228,0 13.819842,0 0.767769,0 1.535538,0 2.303307,0 0.767769,0 1.616598,0.343357 2.303308,0 0.97116,-0.48558 1.53554,-1.535538 2.30331,-2.303307"
         id="path2874"
         style="fill:none;stroke:#000000;stroke-width:1px;stroke-linecap:butt;stroke-linejoin:miter;stroke-opacity:1" />
      <path
         d="m 140.32157,94.561902 c 1.57395,-0.500186 5.55724,0.676339 6.90992,0 1.87285,-0.936425 1.90578,-3.653724 4.60662,-2.303307 0.97116,0.485579 1.53553,1.535538 2.3033,2.303307 0.76777,0.767769 1.70102,1.399875 2.30331,2.303307 0.9523,1.42845 1.08936,3.392661 2.30331,4.606611 0.54289,0.5429 1.61659,-0.34335 2.3033,0 0.97116,0.48558 1.33215,1.81773 2.30331,2.30331 0.68671,0.34336 1.53554,0 2.30331,0 0.76777,0 1.53554,0 2.3033,0 1.53554,0 3.07108,0 4.60662,0 0.76777,0 1.57494,0.24279 2.30331,0 1.62868,-0.54289 2.97793,-1.76041 4.60661,-2.30331 1.4497,-0.48323 9.44042,0 11.51654,0"
         id="path2876"
         style="fill:none;stroke:#000000;stroke-width:1px;stroke-linecap:butt;stroke-linejoin:miter;stroke-opacity:1" />
      <path
         d="m 230.75716,89.955288 c 1.53554,-0.767769 3.07107,-1.535538 4.60661,-2.303307 0.76777,-0.767769 1.33215,-1.817728 2.30331,-2.303307 0.68671,-0.343357 1.53554,0 2.30331,0 0.76777,0 1.61659,-0.343357 2.3033,0 0.97116,0.485579 1.33215,1.817727 2.30331,2.303307 0.68671,0.343356 1.76041,-0.542895 2.30331,0 0.54289,0.542894 -0.68672,1.95995 0,2.303307 1.37342,0.686713 3.14987,-0.48558 4.60661,0 4.64735,1.549114 0.002,4.607405 4.60662,6.909921 0.68671,0.343356 1.61659,-0.343357 2.3033,0 0.97116,0.48558 1.33215,1.817727 2.30331,2.303307 0.68671,0.343357 1.53554,0 2.30331,0 5.78314,0 6.99244,-0.08252 11.51653,-4.606614"
         id="path2878"
         style="fill:none;stroke:#000000;stroke-width:1px;stroke-linecap:butt;stroke-linejoin:miter;stroke-opacity:1" />
      <path
         d="m 105.96426,216.06592 c 0,0 2.60514,-3.67009 8.88009,-3.67009 2.80275,0 -5.4415,-0.0379 -1.67037,-0.0379 3.03211,0 6.27007,3.93856 9.82613,3.93856 3.12688,0 4.83943,-3.58888 8.30531,-3.58888 3.17987,0 18.85789,-0.45033 22.27319,-0.45033 3.21401,0 -1.43986,-0.21685 1.94159,-0.21685 3.23985,0 -0.50103,2.22577 2.85675,2.22577 3.25934,0 6.58896,0.24359 9.92691,0.24359 3.27622,0 23.66697,1.51136 26.98835,1.51136 3.2918,0 -9.70329,-0.74131 -6.39676,-0.74131 3.30624,0 8.77856,-2.65426 12.07006,-2.65426 3.32131,0 21.92397,0.35968 25.20012,0.35968 3.33777,0 5.43522,-0.35043 8.69439,-0.35043 3.35722,0 0.44954,4.09032 3.68887,4.09032 3.38175,0 15.59026,-1.85692 18.80454,-1.85692 3.41514,0 -11.89563,0.57325 -8.71591,0.57325 3.46566,0 12.70992,-3.40172 15.83662,-3.40172 3.55574,0 0.9848,1.16579 4.01669,1.16579 3.77099,0 7.7574,2.51207 10.56017,2.51207 6.27603,0 13.89567,0.79646 13.89567,0.79646"
         id="path2886"
         style="fill:none;stroke:#000000;stroke-width:1px;stroke-linecap:butt;stroke-linejoin:miter;stroke-opacity:1" />
      <path
         d="m 108.03645,255.11488 c 0,0 -2.95113,1.28001 3.32382,1.28001 2.80275,0 -5.92378,-2.9648 -2.15264,-2.9648 3.03211,0 17.6494,-1.73098 21.20546,-1.73098 3.12687,0 -1.38073,4.25706 2.08515,4.25706 3.17987,0 20.09117,-0.28666 23.50648,-0.28666 3.21401,0 6.6618,-3.16897 10.04325,-3.16897 3.23985,0 8.21236,2.48012 11.57014,2.48012 3.25935,0 5.10155,-2.42239 8.4395,-2.42239 3.27623,0 8.74885,1.75456 12.07023,1.75456 3.2918,0 -6.43394,-2.52984 -3.12741,-2.52984 3.30624,0 19.66619,2.47366 22.95768,2.47366 3.32131,0 -2.95213,-2.58894 0.32403,-2.58894 3.33777,0 9.83495,4.63918 13.09412,4.63918 3.35722,0 6.28633,-4.51468 9.52566,-4.51468 3.38175,0 -3.59266,3.96837 -0.37838,3.96837 3.41514,0 6.90093,-3.43078 10.08065,-3.43078 3.46567,0 4.52653,0.77072 7.65323,0.77072 3.55573,0 7.28795,2.13174 10.31984,2.13174 3.77099,0 22.03523,0.71783 24.838,0.71783 6.27602,0 7.96674,-4.05605 7.96674,-4.05605"
         id="path2901"
         style="fill:none;stroke:#000000;stroke-width:1px;stroke-linecap:butt;stroke-linejoin:miter;stroke-opacity:1" />
      <path
         d="m 104.36324,293.50978 c 0,0 -9.686844,-1.96991 -3.41189,-1.96991 2.80275,0 6.58582,4.55235 10.35696,4.55235 3.0321,0 15.40478,-4.19225 18.96083,-4.19225 3.12688,0 -9.13733,1.11692 -5.67145,1.11692 3.17987,0 25.89418,0.53936 29.30949,0.53936 3.21401,0 5.835,1.14631 9.21646,1.14631 3.23984,0 4.90014,-2.46015 8.25792,-2.46015 3.25935,0 -2.51819,3.9295 0.81976,3.9295 3.27623,0 16.4309,-1.06409 19.75228,-1.06409 3.2918,0 4.5637,0.54521 7.87023,0.54521 3.30624,0 -8.01952,-3.19823 -4.72802,-3.19823 3.32131,0 8.59,-0.51581 11.86616,-0.51581 3.33777,0 19.62155,3.65088 22.88072,3.65088 3.35722,0 -9.56844,-2.47991 -6.32911,-2.47991 3.38175,0 6.52763,0.14678 9.74191,0.14678 3.41514,0 26.08877,-0.11255 29.26849,-0.11255 3.46567,0 -11.92277,1.6602 -8.79607,1.6602 3.55573,0 15.96604,-3.40644 18.99794,-3.40644 3.77098,0 10.51574,0.14556 13.3185,0.14556 6.27603,0 -2.77451,3.16627 -2.77451,3.16627"
         id="path2903"
         style="fill:none;stroke:#000000;stroke-width:1px;stroke-linecap:butt;stroke-linejoin:miter;stroke-opacity:1" />
      <path
         d="m 99.083695,335.65499 c 0,0 -8.1893,-0.45195 -1.91435,-0.45195 2.80275,0 22.108895,-2.81045 25.880035,-2.81045 3.0321,0 6.49155,0.066 10.04761,0.066 3.12688,0 7.43667,1.31994 10.90256,1.31994 3.17986,0 6.54183,-0.28775 9.95714,-0.28775 3.21401,0 0.20747,-2.19196 3.58892,-2.19196 3.23985,0 12.61536,2.76194 15.97314,2.76194 3.25935,0 -8.69011,-2.53458 -5.35216,-2.53458 3.27623,0 2.44764,2.6431 5.76901,2.6431 3.2918,0 25.28116,0.38468 28.5877,0.38468 3.30624,0 -4.34621,1.33162 -1.05471,1.33162 3.32131,0 16.51158,-0.90586 19.78773,-0.90586 3.33777,0 -3.78517,-3.77599 -0.526,-3.77599 3.35722,0 12.57367,4.57895 15.813,4.57895 3.38175,0 3.52303,0.14634 6.73731,0.14634 3.41514,0 15.0984,-1.19753 18.27812,-1.19753 3.46566,0 -9.65727,-2.70995 -6.53057,-2.70995 3.55573,0 22.53545,2.98446 25.56734,2.98446 3.77099,0 5.21248,-3.39673 8.01525,-3.39673 6.27603,0 13.89057,1.77417 13.89057,1.77417"
         id="path2905"
         style="fill:none;stroke:#000000;stroke-width:1px;stroke-linecap:butt;stroke-linejoin:miter;stroke-opacity:1" />
      <path
         d="m 84.609142,373.70725 c 0,0 12.319564,-2.82968 18.594518,-2.82968 2.80275,0 14.35136,0.69016 18.1225,0.69016 3.0321,0 2.1843,-0.60124 5.74035,-0.60124 3.12688,0 10.73497,3.95759 14.20085,3.95759 3.17987,0 -7.44121,-3.4401 -4.02591,-3.4401 3.21402,0 3.26707,1.59607 6.64852,1.59607 3.23985,0 26.51844,0.19627 29.87622,0.19627 3.25935,0 5.94581,-0.84644 9.28376,-0.84644 3.27623,0 -7.91471,2.89407 -4.59333,2.89407 3.29179,0 1.71821,-2.01158 5.02475,-2.01158 3.30623,0 8.12118,1.21817 11.41268,1.21817 3.32131,0 20.05851,0.81797 23.33466,0.81797 3.33777,0 7.66111,-4.01386 10.92028,-4.01386 3.35722,0 10.24851,1.21011 13.48784,1.21011 3.38175,0 -3.40795,-1.67901 -0.19367,-1.67901 3.41514,0 -1.51516,1.25388 1.66456,1.25388 3.46566,0 23.76029,2.52002 26.88699,2.52002 3.55573,0 7.92792,-0.4623 10.95982,-0.4623 3.77098,0 2.31655,-3.06348 5.11932,-3.06348 6.27602,0 3.60202,4.50702 3.60202,4.50702"
         id="path2907"
         style="fill:none;stroke:#000000;stroke-width:1px;stroke-linecap:butt;stroke-linejoin:miter;stroke-opacity:1" />
    </g>
    <path
       d="m 492.9077,278.82646 69.09921,0"
       id="path2973"
       style="fill:none;stroke:#000000;stroke-width:0.99921262;stroke-linecap:butt;stroke-linejoin:miter;stroke-miterlimit:4;stroke-opacity:1;stroke-dasharray:none;marker-start:url(#Arrow2Lstart);marker-end:url(#Arrow2Lend)" />
    <g
       transform="matrix(-1,0,0,1,1041.1248,0)"
       id="g4396">
      <path
         d="m 51.476093,48.521521 c -0.881512,0.767232 -2.08702,1.331217 -2.644538,2.301697 -0.290315,0.505357 -0.0654,13.639426 0,13.810182 0.394225,1.029351 2.087021,1.331217 2.644538,2.301697 0.341873,0.595106 0,12.178735 0,13.810183 0,1.631447 0.341873,13.215076 0,13.810182 -0.557517,0.97048 -2.08702,1.331216 -2.644538,2.301697 -0.394223,0.686233 0,1.534465 0,2.301697 0,3.836164 0,7.672324 0,11.508484 0,0.76723 0,1.53447 0,2.3017 0,0.76723 0.394225,1.61546 0,2.30169 -0.557516,0.97048 -2.087019,1.33122 -2.644537,2.3017 -0.347678,0.60522 0,8.00318 0,9.20679 0,0.76723 0.881513,2.3017 0,2.3017 -0.881512,0 -0.881512,-2.3017 0,-2.3017 1.246648,0 1.529503,1.81646 2.644537,2.3017 0.78845,0.34311 1.763026,0 2.644538,0 0.881513,0 1.763025,0 2.644537,0 8.512636,0 -4.514507,-0.54252 5.289074,2.30169 2.508827,0.72786 5.289074,0 7.933611,0 5.289073,0 10.578147,0 15.867221,0 6.170586,0 12.341172,0 18.511754,0 2.64454,0 5.42479,-0.72786 7.93362,0 1.18267,0.34312 1.46186,1.95858 2.64454,2.3017 2.4442,0.70911 10.75587,-0.71567 13.22267,0 1.86998,0.54252 3.41911,1.75918 5.28909,2.3017 1.67254,0.48524 3.52604,0 5.28906,0 5.28907,0 10.57815,0 15.86722,0 2.3837,0 11.55822,0.48289 13.22269,0 1.86997,-0.54252 3.41911,-1.75918 5.28907,-2.3017 0.83628,-0.24262 1.76303,0 2.64454,0 2.3837,0 11.55821,0.48289 13.22268,0 1.86998,-0.54251 3.41911,-1.75918 5.28908,-2.3017 2.49146,-0.72281 14.15265,0.74615 15.86722,0 1.11504,-0.48524 1.46187,-1.95858 2.64454,-2.30169 1.67255,-0.48524 3.52604,0 5.28907,0 6.17058,0 12.34118,0 18.51176,0 1.76303,0 3.57869,0.37216 5.28907,0 1.91227,-0.41609 3.4191,-1.75919 5.28908,-2.3017 2.31146,-0.6706 14.27437,0.69318 15.86722,0 1.11503,-0.48524 1.5295,-1.81646 2.64454,-2.3017 0.80482,-0.35024 6.74262,0 7.93361,0 4.40755,0 8.81512,0 13.22268,0 1.76302,0 3.61653,-0.48524 5.28908,0 1.86996,0.54252 3.3768,1.88561 5.28907,2.3017 2.59455,0.56454 14.33986,-0.66468 15.86722,0 1.11503,0.48524 1.46186,1.95858 2.64454,2.3017 1.67255,0.48524 3.52605,0 5.28907,0 3.07208,0 10.82528,-0.52166 13.22269,0 1.91226,0.41609 3.4191,1.75918 5.28907,2.30169 0.83627,0.24262 1.76302,0 2.64454,0 1.76302,0 3.52605,0 5.28906,0 1.43824,0 10.81607,0 5.28909,0 -1.76303,0 -7.0521,0 -5.28909,0 3.52606,0 7.12058,-0.60186 10.57815,0 1.22245,0.21279 1.46187,1.95858 2.64454,2.3017 3.34511,0.97048 7.15739,-0.74432 10.57815,0 1.91227,0.41609 3.41911,1.75918 5.28907,2.3017 0.83628,0.24262 1.76303,0 2.64454,0 1.76303,0 3.52605,0 5.28907,0 1.76303,0 3.52606,0 5.28908,0 1.76302,0 3.61652,0.48524 5.28907,0 1.18268,-0.34312 1.48706,-1.89873 2.64454,-2.3017 3.37462,-1.17485 7.13009,-1.30135 10.57815,-2.3017 1.86997,-0.54251 3.45894,-1.66455 5.28907,-2.30169 8.00514,-2.78694 6.15861,-2.3017 13.22268,-2.3017 4.18965,0 7.14517,0.68623 10.57815,-2.3017 0.62333,-0.54251 0,-1.53446 0,-2.30169 0,-5.37063 0,-10.74126 0,-16.11188 0,-1.60093 -0.47817,-10.676117 0,-11.508488 0.55752,-0.970481 2.08702,-1.331217 2.64454,-2.301697 0.14758,-0.256905 0.14758,-11.25158 0,-11.508485 -0.55752,-0.970481 -2.08702,-1.331217 -2.64454,-2.301697 -0.34767,-0.605212 0,-8.003184 0,-9.206789 0,-7.672323 0,-15.344647 0,-23.01697 0,-0.767232 0,-1.534465 0,-2.301697 0,-0.767232 -0.39422,-1.615463 0,-2.301697 0.55752,-0.97048 2.64454,-1.216666 2.64454,-2.301697 0,-1.08503 -2.08702,-1.331216 -2.64454,-2.301697 -0.39422,-0.686233 0.78846,-1.95858 0,-2.301697 -0.76284,-0.331975 -14.17704,0 -15.86722,0 -4.40755,0 -8.81512,0 -13.22268,0 -1.76302,0 -3.61652,-0.48524 -5.28908,0 -1.18267,0.343117 -1.46187,1.95858 -2.64454,2.301697 -3.61083,1.047574 -12.25638,-1.047574 -15.86722,0 -1.18267,0.343117 -1.5295,1.816457 -2.64453,2.301697 -1.51836,0.660762 -13.73793,-0.617749 -15.86723,0 -1.18267,0.343117 -1.42209,2.088905 -2.64452,2.301697 -3.45758,0.601867 -7.05211,0 -10.57815,0 -7.93361,0 -15.86722,0 -23.80084,0 -17.63025,0 -35.2605,0 -52.89074,0 -15.86722,0 -31.73444,0 -47.60166,0 -2.72443,0 -17.73121,-0.339679 -18.51176,0 -1.11503,0.485241 -1.5295,1.816457 -2.64454,2.301697 -0.78844,0.343117 -1.76303,0 -2.64454,0 -0.8815,0 -1.76301,0 -2.64453,0 -6.17059,0 -12.34117,0 -18.51176,0 -11.45966,0 -22.91932,0 -34.37898,0 -1.83937,0 -12.26632,-0.416185 -13.22269,0 -1.11503,0.485241 -1.46185,1.95858 -2.64452,2.301697 -1.67256,0.485241 -3.52606,0 -5.28909,0 -1.76302,0 -3.61651,0.485241 -5.28906,0 -1.86998,-0.542514 -3.41911,-1.759181 -5.28908,-2.301697 -0.83628,-0.24262 -1.76302,0 -2.64453,0 -2.24429,0 -14.409353,0.422959 -15.86723,0 -1.182672,-0.343117 -1.461864,-1.95858 -2.644537,-2.301697 -3.610834,-1.047574 -12.256388,1.047574 -15.867221,0 -1.182672,-0.343117 -1.529503,-1.816456 -2.644537,-2.301697 -0.788449,-0.343117 -1.763024,0 -2.644537,0 -0.881512,0 -1.763024,0 -2.644536,0 -5.289074,0 -10.578148,0 -18.511759,9.206788 z"
         id="path4398"
         style="fill:none;stroke:#000000;stroke-width:1.07114208px;stroke-linecap:butt;stroke-linejoin:miter;stroke-opacity:1" />
      <path
         d="m 50.672755,163.66111 c 0,4.60662 0,9.21323 0,13.81984 0,1.53554 -0.48558,3.14988 0,4.60662 0.343356,1.03007 1.95995,1.27324 2.303307,2.30331 0.485579,1.45673 0,3.07107 0,4.60661 0,1.53554 0,3.07108 0,4.60661 0,1.92877 0.437896,9.76495 0,11.51654 -0.416382,1.66552 -1.886926,2.94109 -2.303307,4.60661 -0.438788,1.75515 0,13.74006 0,16.12315 0,1.53554 0,3.07108 0,4.60662 0,0.76777 0.343356,1.61659 0,2.3033 -0.48558,0.97116 -1.817728,1.33215 -2.303308,2.30331 -0.699309,1.39862 0.69931,12.42122 0,13.81984 -0.485579,0.97116 -1.817727,1.33215 -2.303307,2.30331 -0.723839,1.44768 0.72384,7.76555 0,9.21323 -0.485579,0.97116 -1.817727,1.33214 -2.303307,2.3033 -0.350144,0.70029 0,7.62275 0,9.21323 0,4.60662 0,9.21323 0,13.81984 0,1.03732 0.350488,6.20895 0,6.90993 -0.485579,0.97116 -1.817727,1.33214 -2.303307,2.3033 -0.343356,0.68672 0,1.53554 0,2.30331 0,3.55746 0.542664,8.26055 0,11.51653 -0.399144,2.39487 -1.714455,4.55452 -2.303307,6.90993 -0.186211,0.74484 0,1.53553 0,2.3033 0,1.53554 0,3.07108 0,4.60662 0,3.83884 0,7.67769 0,11.51653 0,0.76777 0,1.53554 0,2.30331 0,0.76777 0.343357,1.61659 0,2.30331 -0.485579,0.97116 -1.817727,1.33214 -2.303307,2.3033 -0.306914,0.61383 0,12.77785 0,13.81985 0,4.60661 0,9.21322 0,13.81984 0,1.53554 -0.372422,3.11692 0,4.60661 0.416382,1.66553 1.760413,2.97793 2.303307,4.60662 0.528097,1.58428 -0.679498,5.55092 0,6.90992 0.48558,0.97116 1.817728,1.33214 2.303307,2.3033 0.686714,1.37343 -0.686713,3.23319 0,4.60662 0.48558,0.97116 1.817728,1.33215 2.303307,2.3033 0.921323,1.84265 -0.921322,5.06728 0,6.90993 0.48558,0.97116 1.817728,1.33214 2.303307,2.3033 0.343357,0.68672 -0.343356,1.6166 0,2.30331 0.48558,0.97116 1.817728,1.33215 2.303307,2.30331 0.491853,0.9837 0,10.60601 0,11.51653 0,3.83885 0,7.67769 0,11.51654 0,0.76777 0,1.53554 0,2.3033 0,0.76777 0.343357,1.6166 0,2.30331 -0.485579,0.97116 -1.817727,1.33215 -2.303307,2.30331 -0.921322,1.84264 0.921323,5.06727 0,6.90992 -0.485579,0.97116 -1.817727,1.33215 -2.303307,2.30331 -0.343356,0.68671 -0.542894,2.8462 0,2.3033 1.21395,-1.21395 2.303307,-6.32339 2.303307,-4.60661 0,2.4279 -2.303307,4.48202 -2.303307,6.90992 0,0.76777 1.535538,0 2.303307,0 3.071077,0 6.142153,0 9.213229,0 12.284304,0 24.568608,0 36.852912,0 3.838845,0 7.67769,0 11.516539,0 1.53553,0 3.11692,-0.37242 4.60661,0 1.66552,0.41638 2.94109,1.88693 4.60661,2.30331 3.61303,0.90326 7.90351,-0.90326 11.51654,0 1.66552,0.41638 2.94109,1.88692 4.60661,2.3033 1.48969,0.37243 3.07108,0 4.60662,0 4.60661,0 9.21323,0 13.81984,0 2.30331,0 4.60661,0 6.90992,0 0.76777,0 1.53554,0 2.30331,0 0.76777,0 1.61659,0.34336 2.3033,0 1.94232,-0.97116 2.6643,-3.63545 4.60662,-4.60661 1.84264,-0.92132 5.06727,0.92132 6.90992,0 0.97116,-0.48558 1.33215,-1.81773 2.30331,-2.30331 0.68671,-0.34335 1.53553,0 2.3033,0 3.83885,0 7.67769,0 11.51654,0 0.76777,0 1.53554,0 2.30331,0 0.76776,0 1.61659,0.34336 2.3033,0 0.97116,-0.48558 1.33215,-1.81772 2.30331,-2.3033 0.68671,-0.34336 1.53554,0 2.30331,0 1.53554,0 3.07107,0 4.60661,0 3.07031,0 6.14292,0 9.21323,0 0.76777,0 1.53554,0 2.30331,0 0.76777,0 1.61659,0.34335 2.3033,0 0.97116,-0.48558 1.27324,-1.95995 2.30331,-2.30331 1.0535,-0.35117 8.18831,0.51246 9.21323,0 0.97116,-0.48558 1.33215,-1.81773 2.30331,-2.30331 1.35899,-0.6795 5.32563,0.5281 6.90992,0 1.62868,-0.54289 2.97793,-1.76041 4.60661,-2.3033 0.72837,-0.24279 1.57494,0.24279 2.30331,0 1.62868,-0.5429 2.94109,-1.88693 4.60661,-2.30331 2.23454,-0.55864 4.72481,0.72837 6.90992,0 1.62869,-0.5429 2.97793,-1.76041 4.60662,-2.30331 1.24656,-0.41552 8.42855,0 9.21322,0 2.30331,0 4.72482,-0.72837 6.90993,0 1.03007,0.34336 1.33214,1.81773 2.3033,2.30331 1.22131,0.61065 9.9496,-0.52232 11.51654,0 1.03007,0.34336 1.53554,1.53554 2.3033,2.30331 1.53554,0.76776 2.94109,1.88692 4.60662,2.3033 1.48969,0.37242 3.23319,-0.68671 4.60661,0 0.68672,0.34336 -0.54289,1.76041 0,2.30331 0.5429,0.54289 1.53554,0 2.30331,0 0.76777,0 1.53554,0 2.30331,0 2.67568,0 9.42848,0.52201 11.51653,0 11.12254,-2.78064 -0.11415,-1.09458 6.90992,-4.60661 0.68672,-0.34336 1.6166,0.34335 2.30331,0 1.94232,-0.97116 2.6643,-3.63546 4.60661,-4.60662 0.68672,-0.34336 1.95995,0.68671 2.30331,0 0.68671,-1.37343 -0.37242,-3.11692 0,-4.60661 0.41638,-1.66553 1.76041,-2.97793 2.30331,-4.60662 0.24279,-0.72837 0,-1.53553 0,-2.3033 0,-1.53554 0,-3.07108 0,-4.60662 0,-3.11905 0,-6.09418 0,-9.21323 0,-0.76777 -0.24279,-1.57493 0,-2.3033 0.54289,-1.62869 1.88692,-2.94109 2.30331,-4.60662 0.52201,-2.08805 0,-8.84085 0,-11.51653 0,-8.44546 0,-16.89092 0,-25.33638 0,-3.83884 0,-7.67769 0,-11.51653 0,-1.53554 -0.37243,-3.11693 0,-4.60662 0.41638,-1.66552 1.76041,-2.97793 2.3033,-4.60661 0.24279,-0.72837 0,-1.53554 0,-2.30331 0,-1.53554 0,-3.07108 0,-4.60661 0,-4.60662 0,-9.21323 0,-13.81985 0,-16.12315 0,-32.24629 0,-48.36944 0,-7.67769 0,-15.35538 0,-23.03307 0,-1.20445 0.30282,-8.6076 0,-9.21323 -0.48558,-0.97116 -1.81772,-1.33215 -2.3033,-2.30331 -0.72655,-1.45308 0.72654,-10.06345 0,-11.51653 -0.48558,-0.97116 -1.81773,-1.33215 -2.30331,-2.30331 -0.74814,-1.49628 0.73051,-10.05551 0,-11.51654 -0.48558,-0.97116 -1.81773,-1.33214 -2.30331,-2.3033 -0.34336,-0.68672 0,-1.53554 0,-2.30331 0,-0.76777 0,-1.53554 0,-2.30331 0,-1.20444 0.30282,-8.60759 0,-9.21323 -0.48558,-0.97115 -1.81773,-1.33214 -2.30331,-2.3033 -0.12854,-0.25709 -0.12854,-11.25945 0,-11.51654 0.48558,-0.97116 1.81773,-1.33214 2.30331,-2.3033 0.35049,-0.70098 0,-5.87261 0,-6.90993 0,-0.76776 0,-1.53553 0,-2.3033 0,-0.76777 -0.34336,-1.6166 0,-2.30331 2.8462,-5.6924 2.30331,0.79505 2.30331,-4.60661 0,-0.76777 0.76777,-2.30331 0,-2.30331 -1.19252,0 -11.7228,6.21091 -13.81984,6.90992 -1.49235,0.49745 -9.63082,0 -11.51654,0 -8.44546,0 -16.89092,0 -25.33638,0 -7.67769,0 -15.35538,0 -23.03307,0 -1.53553,0 -3.07107,0 -4.60661,0 -0.76777,0 -1.61659,0.34336 -2.30331,0 -0.97116,-0.48558 -1.33214,-1.81773 -2.3033,-2.30331 -1.43043,-0.71521 -12.34394,0.73796 -13.81985,0 -0.97116,-0.48558 -1.24993,-2.03996 -2.3033,-2.3033 -2.23454,-0.55864 -4.60662,0 -6.90992,0 -2.30331,0 -4.60662,0 -6.90993,0 -1.53553,0 -3.11692,0.37242 -4.60661,0 -1.66552,-0.41638 -2.94109,-1.88693 -4.60661,-2.30331 -3.13742,-0.78436 -11.03333,0.92884 -13.81985,0 -1.03007,-0.34336 -1.27323,-1.95995 -2.3033,-2.30331 -3.14492,-1.0483 -10.67492,1.04831 -13.81985,0 -1.03007,-0.34335 -1.27323,-1.95995 -2.3033,-2.3033 -1.85455,-0.61819 -12.4974,0.66122 -13.81984,0 -0.97116,-0.48558 -1.27324,-1.95995 -2.30331,-2.30331 -1.23827,-0.41276 -7.26313,0 -9.21323,0 -6.90992,0 -13.81984,0 -20.72976,0 -6.90992,0 -13.81984,0 -20.72977,0 -1.2856,0 -10.46216,0.35146 -11.51653,0 -1.03007,-0.34336 -1.33215,-1.81773 -2.303308,-2.30331 -0.686713,-0.34336 -1.535538,0 -2.303307,0 -0.767769,0 -1.535538,0 -2.303307,0 -4.606614,0 -9.213228,0 -13.819842,0 -0.767769,0 -1.535538,0 -2.303307,0 -0.767769,0 -1.616594,0.34336 -2.303307,0 -0.97116,-0.48558 -1.332148,-1.81773 -2.303307,-2.30331 -0.605635,-0.30281 -8.008782,0 -9.213228,0 -5.374383,0 -10.748766,0 -13.819842,9.21323 z"
         id="path4400"
         style="fill:none;stroke:#000000;stroke-width:1px;stroke-linecap:butt;stroke-linejoin:miter;stroke-opacity:1" />
      <path
         d="m 357.01259,182.08757 c -0.68671,1.37343 0.68671,3.23319 0,4.60661 -0.48558,0.97116 -2.03997,1.24994 -2.30331,2.30331 -0.55863,2.23454 0.55864,4.67538 0,6.90992 -0.26334,1.05337 -1.95995,1.27324 -2.30331,2.30331 -0.72837,2.18511 0,4.60661 0,6.90992 0,4.60661 0,9.21323 0,13.81984 0,6.90992 0,13.81984 0,20.72976 0,2.30331 -0.72837,4.72482 0,6.90993 0.34336,1.03007 1.81773,1.33214 2.30331,2.3033 0.34336,0.68672 0,1.53554 0,2.30331 0,1.53554 -0.48558,3.14987 0,4.60661 0.34336,1.03007 1.81773,1.33215 2.30331,2.30331 0.51246,1.02492 -0.35117,8.15973 0,9.21323 0.34336,1.03007 1.81773,1.33215 2.30331,2.30331 1.18362,2.36724 -2.30331,5.31246 -2.30331,6.90992 0,1.08579 1.95995,1.27323 2.30331,2.3033 0.48558,1.45674 -0.37243,3.11693 0,4.60662 1.24854,4.99417 5.66137,6.52236 6.90992,11.51653 0.37242,1.48969 0,3.07108 0,4.60662 0,3.83884 0,7.67769 0,11.51653 0,5.37439 0,10.74877 0,16.12315 0,1.53554 0,3.07108 0,4.60662 0,1.53553 0.37242,3.11692 0,4.60661 -0.41638,1.66552 -1.76042,2.97793 -2.30331,4.60661 -0.24279,0.72837 0,1.53554 0,2.30331 0,1.53554 0,3.07108 0,4.60661 0,1.53554 0,3.07108 0,4.60662 0,1.53554 -0.48558,3.14987 0,4.60661 0.34336,1.03007 1.95995,1.27324 2.30331,2.30331 0.30577,0.91733 0.30577,12.90251 0,13.81984 -0.34336,1.03007 -1.95995,1.27324 -2.30331,2.30331 -0.42325,1.26976 0,11.86515 0,13.81984 0,7.67769 0,15.35538 0,23.03307 0,3.83885 0,7.67769 0,11.51654 0,0.76777 0,1.53553 0,2.3033 0,0.76777 0.34336,1.6166 0,2.30331 -0.48558,0.97116 -1.81773,1.33215 -2.30331,2.30331 -0.21131,0.42262 0.16905,6.90992 0,6.90992 -0.76777,0 0,-3.07108 0,-2.30331 0,1.53554 0,3.07108 0,4.60662 0,0.76776 0,1.53553 0,2.3033 0,0.76777 0.34336,1.6166 0,2.30331 -0.48558,0.97116 -2.3033,1.21752 -2.3033,2.30331 0,0.76777 1.53553,0 2.3033,0 1.9547,0 12.55008,0.42325 13.81984,0 10.16729,-3.3891 -8.36829,-2.30331 6.90993,-2.30331 5.37438,0 10.74876,0 16.12315,0 1.53553,0 3.07107,0 4.60661,0 1.53554,0 3.14987,-0.48558 4.60661,0 1.03007,0.34336 1.27324,1.95995 2.30331,2.30331 0.91733,0.30577 12.90251,0.30577 13.81984,0 4.58347,-1.52783 1.07488,-2.14976 2.30331,-4.60662 0.97116,-1.94232 3.9199,-2.54647 4.60661,-4.60661 0.48558,-1.45674 -0.48558,-3.14988 0,-4.60662 0.34336,-1.03007 1.95995,-1.27323 2.30331,-2.3033 0.48558,-1.45674 0,-3.07108 0,-4.60662 0,-5.37438 0,-10.74876 0,-16.12315 0,-1.88571 -0.49745,-10.02418 0,-11.51653 0.5429,-1.62869 1.88693,-2.94109 2.30331,-4.60662 0.37242,-1.48969 0,-3.07107 0,-4.60661 0,-1.53554 0,-3.07108 0,-4.60661 0,-0.76777 -0.24279,-1.57494 0,-2.30331 0.54289,-1.62868 1.88692,-2.94109 2.3033,-4.60661 0.74485,-2.97939 -0.97116,-6.29975 0,-9.21323 0.34336,-1.03007 1.95995,-1.27324 2.30331,-2.30331 1.04831,-3.14492 -1.04831,-10.67492 0,-13.81984 0.34336,-1.03007 1.95995,-1.27324 2.30331,-2.30331 0.43992,-1.31978 0,-9.35415 0,-11.51653 0,-4.60662 0,-9.21323 0,-13.81985 0,-1.53553 0,-3.07107 0,-4.60661 0,-0.76777 0.24279,-1.57494 0,-2.30331 -0.5429,-1.62868 -1.88693,-2.94109 -2.30331,-4.60661 -0.74484,-2.97938 0.97116,-6.29975 0,-9.21323 -0.34336,-1.03007 -1.81773,-1.33215 -2.30331,-2.30331 -0.92132,-1.84264 0.92133,-5.06727 0,-6.90992 -0.48558,-0.97116 -1.81772,-1.33214 -2.3033,-2.3033 -0.67473,-1.34945 0.42432,-9.81924 0,-11.51654 -0.41638,-1.66552 -1.88693,-2.94109 -2.30331,-4.60661 -0.51409,-2.05636 0,-8.8504 0,-11.51654 0,-1.95009 -0.41276,-7.97495 0,-9.21323 0.34336,-1.03007 1.81773,-1.33214 2.30331,-2.3033 0.15728,-0.31457 0.15728,-13.50528 0,-13.81985 -0.48558,-0.97116 -1.81773,-1.33214 -2.30331,-2.3033 -0.29776,-0.59552 0,-12.18726 0,-13.81984 0,-0.76777 0,-1.53554 0,-2.30331 0,-0.76777 0.34336,-1.6166 0,-2.30331 -0.48558,-0.97116 -1.81773,-1.33215 -2.30331,-2.30331 -0.69931,-1.39862 0.69931,-12.42122 0,-13.81984 -0.48558,-0.97116 -1.81772,-1.33215 -2.3033,-2.30331 -0.34336,-0.68671 0,-1.53553 0,-2.3033 0,-0.76777 0,-1.53554 0,-2.30331 0,-3.83884 0,-7.67769 0,-11.51653 0,-0.76777 0.34335,-1.6166 0,-2.30331 -0.48558,-0.97116 -1.81773,-1.33215 -2.30331,-2.30331 -0.34336,-0.68671 0.34336,-1.61659 0,-2.30331 -0.48558,-0.97115 -1.81773,-1.33214 -2.30331,-2.3033 -0.68671,-1.37343 1.08579,-3.52083 0,-4.60662 -3.57805,-3.57805 -9.38601,-2.3033 -13.81984,-2.3033 -0.76777,0 -1.57494,0.24279 -2.30331,0 -1.62868,-0.5429 -2.94109,-1.88693 -4.60661,-2.30331 -2.08806,-0.52201 -8.84085,0 -11.51654,0 -1.53553,0 -3.14987,0.48558 -4.60661,0 -1.03007,-0.34336 -1.33215,-1.81773 -2.30331,-2.30331 -0.68671,-0.34335 -1.53554,0 -2.3033,0 -0.91053,0 -10.53283,-0.49185 -11.51654,0 -0.97116,0.48558 -1.39987,1.70102 -2.30331,2.30331 -3.72494,2.48329 -7.67769,4.60661 -11.51653,16.12315 z"
         id="path4402"
         style="fill:none;stroke:#000000;stroke-width:1px;stroke-linecap:butt;stroke-linejoin:miter;stroke-opacity:1" />
      <path
         d="m 73.705825,89.955288 c -2.303307,3.071076 -10.343489,7.496444 -6.909921,9.213228 4.004193,2.002094 7.359908,-5.247271 11.516535,-6.909921 0.712855,-0.285143 0,1.535538 0,2.303307 0,0.767769 0,1.535538 0,2.303307 0,0.767769 -0.686714,1.95995 0,2.303307 1.373427,0.686713 3.071076,0 4.606614,0 4.606614,0 9.213228,0 13.819842,0 0.767769,0 1.535538,0 2.303307,0 0.767769,0 1.616598,0.343357 2.303308,0 0.97116,-0.48558 1.53554,-1.535538 2.30331,-2.303307"
         id="path4404"
         style="fill:none;stroke:#000000;stroke-width:1px;stroke-linecap:butt;stroke-linejoin:miter;stroke-opacity:1" />
      <path
         d="m 140.32157,94.561902 c 1.57395,-0.500186 5.55724,0.676339 6.90992,0 1.87285,-0.936425 1.90578,-3.653724 4.60662,-2.303307 0.97116,0.485579 1.53553,1.535538 2.3033,2.303307 0.76777,0.767769 1.70102,1.399875 2.30331,2.303307 0.9523,1.42845 1.08936,3.392661 2.30331,4.606611 0.54289,0.5429 1.61659,-0.34335 2.3033,0 0.97116,0.48558 1.33215,1.81773 2.30331,2.30331 0.68671,0.34336 1.53554,0 2.30331,0 0.76777,0 1.53554,0 2.3033,0 1.53554,0 3.07108,0 4.60662,0 0.76777,0 1.57494,0.24279 2.30331,0 1.62868,-0.54289 2.97793,-1.76041 4.60661,-2.30331 1.4497,-0.48323 9.44042,0 11.51654,0"
         id="path4406"
         style="fill:none;stroke:#000000;stroke-width:1px;stroke-linecap:butt;stroke-linejoin:miter;stroke-opacity:1" />
      <path
         d="m 230.75716,89.955288 c 1.53554,-0.767769 3.07107,-1.535538 4.60661,-2.303307 0.76777,-0.767769 1.33215,-1.817728 2.30331,-2.303307 0.68671,-0.343357 1.53554,0 2.30331,0 0.76777,0 1.61659,-0.343357 2.3033,0 0.97116,0.485579 1.33215,1.817727 2.30331,2.303307 0.68671,0.343356 1.76041,-0.542895 2.30331,0 0.54289,0.542894 -0.68672,1.95995 0,2.303307 1.37342,0.686713 3.14987,-0.48558 4.60661,0 4.64735,1.549114 0.002,4.607405 4.60662,6.909921 0.68671,0.343356 1.61659,-0.343357 2.3033,0 0.97116,0.48558 1.33215,1.817727 2.30331,2.303307 0.68671,0.343357 1.53554,0 2.30331,0 5.78314,0 6.99244,-0.08252 11.51653,-4.606614"
         id="path4408"
         style="fill:none;stroke:#000000;stroke-width:1px;stroke-linecap:butt;stroke-linejoin:miter;stroke-opacity:1" />
      <path
         d="m 105.96426,216.06592 c 0,0 2.60514,-3.67009 8.88009,-3.67009 2.80275,0 -5.4415,-0.0379 -1.67037,-0.0379 3.03211,0 6.27007,3.93856 9.82613,3.93856 3.12688,0 4.83943,-3.58888 8.30531,-3.58888 3.17987,0 18.85789,-0.45033 22.27319,-0.45033 3.21401,0 -1.43986,-0.21685 1.94159,-0.21685 3.23985,0 -0.50103,2.22577 2.85675,2.22577 3.25934,0 6.58896,0.24359 9.92691,0.24359 3.27622,0 23.66697,1.51136 26.98835,1.51136 3.2918,0 -9.70329,-0.74131 -6.39676,-0.74131 3.30624,0 8.77856,-2.65426 12.07006,-2.65426 3.32131,0 21.92397,0.35968 25.20012,0.35968 3.33777,0 5.43522,-0.35043 8.69439,-0.35043 3.35722,0 0.44954,4.09032 3.68887,4.09032 3.38175,0 15.59026,-1.85692 18.80454,-1.85692 3.41514,0 -11.89563,0.57325 -8.71591,0.57325 3.46566,0 12.70992,-3.40172 15.83662,-3.40172 3.55574,0 0.9848,1.16579 4.01669,1.16579 3.77099,0 7.7574,2.51207 10.56017,2.51207 6.27603,0 13.89567,0.79646 13.89567,0.79646"
         id="path4410"
         style="fill:none;stroke:#000000;stroke-width:1px;stroke-linecap:butt;stroke-linejoin:miter;stroke-opacity:1" />
      <path
         d="m 108.03645,255.11488 c 0,0 -2.95113,1.28001 3.32382,1.28001 2.80275,0 -5.92378,-2.9648 -2.15264,-2.9648 3.03211,0 17.6494,-1.73098 21.20546,-1.73098 3.12687,0 -1.38073,4.25706 2.08515,4.25706 3.17987,0 20.09117,-0.28666 23.50648,-0.28666 3.21401,0 6.6618,-3.16897 10.04325,-3.16897 3.23985,0 8.21236,2.48012 11.57014,2.48012 3.25935,0 5.10155,-2.42239 8.4395,-2.42239 3.27623,0 8.74885,1.75456 12.07023,1.75456 3.2918,0 -6.43394,-2.52984 -3.12741,-2.52984 3.30624,0 19.66619,2.47366 22.95768,2.47366 3.32131,0 -2.95213,-2.58894 0.32403,-2.58894 3.33777,0 9.83495,4.63918 13.09412,4.63918 3.35722,0 6.28633,-4.51468 9.52566,-4.51468 3.38175,0 -3.59266,3.96837 -0.37838,3.96837 3.41514,0 6.90093,-3.43078 10.08065,-3.43078 3.46567,0 4.52653,0.77072 7.65323,0.77072 3.55573,0 7.28795,2.13174 10.31984,2.13174 3.77099,0 22.03523,0.71783 24.838,0.71783 6.27602,0 7.96674,-4.05605 7.96674,-4.05605"
         id="path4412"
         style="fill:none;stroke:#000000;stroke-width:1px;stroke-linecap:butt;stroke-linejoin:miter;stroke-opacity:1" />
      <path
         d="m 104.36324,293.50978 c 0,0 -9.686844,-1.96991 -3.41189,-1.96991 2.80275,0 6.58582,4.55235 10.35696,4.55235 3.0321,0 15.40478,-4.19225 18.96083,-4.19225 3.12688,0 -9.13733,1.11692 -5.67145,1.11692 3.17987,0 25.89418,0.53936 29.30949,0.53936 3.21401,0 5.835,1.14631 9.21646,1.14631 3.23984,0 4.90014,-2.46015 8.25792,-2.46015 3.25935,0 -2.51819,3.9295 0.81976,3.9295 3.27623,0 16.4309,-1.06409 19.75228,-1.06409 3.2918,0 4.5637,0.54521 7.87023,0.54521 3.30624,0 -8.01952,-3.19823 -4.72802,-3.19823 3.32131,0 8.59,-0.51581 11.86616,-0.51581 3.33777,0 19.62155,3.65088 22.88072,3.65088 3.35722,0 -9.56844,-2.47991 -6.32911,-2.47991 3.38175,0 6.52763,0.14678 9.74191,0.14678 3.41514,0 26.08877,-0.11255 29.26849,-0.11255 3.46567,0 -11.92277,1.6602 -8.79607,1.6602 3.55573,0 15.96604,-3.40644 18.99794,-3.40644 3.77098,0 10.51574,0.14556 13.3185,0.14556 6.27603,0 -2.77451,3.16627 -2.77451,3.16627"
         id="path4414"
         style="fill:none;stroke:#000000;stroke-width:1px;stroke-linecap:butt;stroke-linejoin:miter;stroke-opacity:1" />
      <path
         d="m 99.083695,335.65499 c 0,0 -8.1893,-0.45195 -1.91435,-0.45195 2.80275,0 22.108895,-2.81045 25.880035,-2.81045 3.0321,0 6.49155,0.066 10.04761,0.066 3.12688,0 7.43667,1.31994 10.90256,1.31994 3.17986,0 6.54183,-0.28775 9.95714,-0.28775 3.21401,0 0.20747,-2.19196 3.58892,-2.19196 3.23985,0 12.61536,2.76194 15.97314,2.76194 3.25935,0 -8.69011,-2.53458 -5.35216,-2.53458 3.27623,0 2.44764,2.6431 5.76901,2.6431 3.2918,0 25.28116,0.38468 28.5877,0.38468 3.30624,0 -4.34621,1.33162 -1.05471,1.33162 3.32131,0 16.51158,-0.90586 19.78773,-0.90586 3.33777,0 -3.78517,-3.77599 -0.526,-3.77599 3.35722,0 12.57367,4.57895 15.813,4.57895 3.38175,0 3.52303,0.14634 6.73731,0.14634 3.41514,0 15.0984,-1.19753 18.27812,-1.19753 3.46566,0 -9.65727,-2.70995 -6.53057,-2.70995 3.55573,0 22.53545,2.98446 25.56734,2.98446 3.77099,0 5.21248,-3.39673 8.01525,-3.39673 6.27603,0 13.89057,1.77417 13.89057,1.77417"
         id="path4416"
         style="fill:none;stroke:#000000;stroke-width:1px;stroke-linecap:butt;stroke-linejoin:miter;stroke-opacity:1" />
      <path
         d="m 84.609142,373.70725 c 0,0 12.319564,-2.82968 18.594518,-2.82968 2.80275,0 14.35136,0.69016 18.1225,0.69016 3.0321,0 2.1843,-0.60124 5.74035,-0.60124 3.12688,0 10.73497,3.95759 14.20085,3.95759 3.17987,0 -7.44121,-3.4401 -4.02591,-3.4401 3.21402,0 3.26707,1.59607 6.64852,1.59607 3.23985,0 26.51844,0.19627 29.87622,0.19627 3.25935,0 5.94581,-0.84644 9.28376,-0.84644 3.27623,0 -7.91471,2.89407 -4.59333,2.89407 3.29179,0 1.71821,-2.01158 5.02475,-2.01158 3.30623,0 8.12118,1.21817 11.41268,1.21817 3.32131,0 20.05851,0.81797 23.33466,0.81797 3.33777,0 7.66111,-4.01386 10.92028,-4.01386 3.35722,0 10.24851,1.21011 13.48784,1.21011 3.38175,0 -3.40795,-1.67901 -0.19367,-1.67901 3.41514,0 -1.51516,1.25388 1.66456,1.25388 3.46566,0 23.76029,2.52002 26.88699,2.52002 3.55573,0 7.92792,-0.4623 10.95982,-0.4623 3.77098,0 2.31655,-3.06348 5.11932,-3.06348 6.27602,0 3.60202,4.50702 3.60202,4.50702"
         id="path4418"
         style="fill:none;stroke:#000000;stroke-width:1px;stroke-linecap:butt;stroke-linejoin:miter;stroke-opacity:1" />
    </g>
  </g>
</svg>
